<svg viewBox="0 0 52 54" fill="none" xmlns="http://www.w3.org/2000/svg">
<defs>
<filter id="filter0_d_359_2909" x="0" y="0" width="52" height="53.7854" filterUnits="userSpaceOnUse" color-interpolation-filters="sRGB">
<feFlood flood-opacity="0" result="BackgroundImageFix"/>
<feColorMatrix in="SourceAlpha" type="matrix" values="0 0 0 0 0 0 0 0 0 0 0 0 0 0 0 0 0 0 127 0" result="hardAlpha"/>
<feOffset/>
<feGaussianBlur stdDeviation="8"/>
<feComposite in2="hardAlpha" operator="out"/>
<feColorMatrix type="matrix" values="0 0 0 0 0.160784 0 0 0 0 0.533333 0 0 0 0 0.533333 0 0 0 0.24 0"/>
<feBlend mode="normal" in2="BackgroundImageFix" result="effect1_dropShadow_359_2909"/>
<feBlend mode="normal" in="SourceGraphic" in2="effect1_dropShadow_359_2909" result="shape"/>
</filter>
</defs>
<g filter="url(#filter0_d_359_2909)">
<path d="M16 35.7829V19C16 17.3431 17.3431 16 19 16H33C34.6569 16 36 17.3431 36 19V35.7829C36 37.1278 34.5321 37.9546 33.382 37.2404L26.618 33.0896C26.2393 32.8573 25.7607 32.8573 25.382 33.0896L18.618 37.2404C17.4679 37.9546 16 37.1278 16 35.7829Z" fill="currentColor"/>
<path d="M21.0731 24.2792C21.5748 23.7657 22.3974 23.7561 22.911 24.2577L24.8827 26.1825L29.0946 22.0702C29.6082 21.5666 30.4309 21.5782 30.9325 22.0917C31.4341 22.6053 31.4245 23.4279 30.911 23.9296L25.7909 28.9296C25.2858 29.4228 24.4796 29.4228 23.9745 28.9296L21.0946 26.1171C20.5811 25.6154 20.5716 24.7928 21.0731 24.2792Z" fill="currentColor" fill-opacity="0.82"/>
</g>
</svg>
