<svg width="52" height="54" viewBox="0 0 52 54" fill="none" xmlns="http://www.w3.org/2000/svg">
<g filter="url(#filter0_d_359_2909)">
<path d="M16 35.7829V19C16 17.3431 17.3431 16 19 16H33C34.6569 16 36 17.3431 36 19V35.7829C36 37.2651 34.4442 38.2323 33.115 37.5764L26.885 34.5023C26.3271 34.227 25.6729 34.227 25.115 34.5023L18.885 37.5764C17.5558 38.2323 16 37.2651 16 35.7829Z" fill="url(#paint0_linear_359_2909)"/>
</g>
<path d="M29.0946 22.0702C29.6082 21.5686 30.4309 21.5782 30.9325 22.0917C31.4341 22.6053 31.4245 23.4279 30.911 23.9296L25.7909 28.9296C25.2858 29.4228 24.4796 29.4228 23.9745 28.9296L21.0946 26.1171C20.5811 25.6154 20.5716 24.7928 21.0731 24.2792C21.5748 23.7657 22.3974 23.7561 22.911 24.2577L24.8827 26.1825L29.0946 22.0702Z" fill="white" fill-opacity="0.82"/>
<defs>
<filter id="filter0_d_359_2909" x="0" y="0" width="52" height="53.7854" filterUnits="userSpaceOnUse" color-interpolation-filters="sRGB">
<feFlood flood-opacity="0" result="BackgroundImageFix"/>
<feColorMatrix in="SourceAlpha" type="matrix" values="0 0 0 0 0 0 0 0 0 0 0 0 0 0 0 0 0 0 127 0" result="hardAlpha"/>
<feOffset/>
<feGaussianBlur stdDeviation="8"/>
<feComposite in2="hardAlpha" operator="out"/>
<feColorMatrix type="matrix" values="0 0 0 0 0.160784 0 0 0 0 0.533333 0 0 0 0 0.533333 0 0 0 0.24 0"/>
<feBlend mode="normal" in2="BackgroundImageFix" result="effect1_dropShadow_359_2909"/>
<feBlend mode="normal" in="SourceGraphic" in2="effect1_dropShadow_359_2909" result="shape"/>
</filter>
<linearGradient id="paint0_linear_359_2909" x1="26" y1="16" x2="26" y2="39" gradientUnits="userSpaceOnUse">
<stop stop-color="#299696"/>
<stop offset="1" stop-color="#277D7D"/>
</linearGradient>
</defs>
</svg>
