<svg viewBox="0 0 28 28" fill="none" xmlns="http://www.w3.org/2000/svg">
<path d="M7.98524 7.97769C8.57755 7.3856 9.53754 7.38546 10.1298 7.97769L14.0145 11.8625L17.8925 7.9855C18.4847 7.39344 19.4447 7.39347 20.037 7.9855C20.6292 8.57775 20.6291 9.53773 20.037 10.13L16.1591 14.007L20.0292 17.8771C20.6214 18.4693 20.6213 19.4293 20.0292 20.0216C19.4369 20.6139 18.4769 20.6139 17.8847 20.0216L14.0145 16.1515L10.1376 20.0294C9.54529 20.6217 8.58534 20.6217 7.99305 20.0294C7.40097 19.4371 7.40082 18.4771 7.99305 17.8849L11.87 14.007L7.98524 10.1222C7.39294 9.52993 7.39294 8.56999 7.98524 7.97769Z" fill="currentColor"/>
</svg>
