<svg width="14" height="14" viewBox="0 0 14 14" fill="none" xmlns="http://www.w3.org/2000/svg">
<path fill-rule="evenodd" clip-rule="evenodd" d="M11.3743 1.1665H2.62435C2.46964 1.1665 2.32127 1.22796 2.21187 1.33736C2.10247 1.44675 2.04102 1.59513 2.04102 1.74984V12.2498C2.04102 12.4045 2.10247 12.5529 2.21187 12.6623C2.32127 12.7717 2.46964 12.8332 2.62435 12.8332H7.58268V9.9165C7.58268 9.11267 8.23718 8.45817 9.04102 8.45817H11.9577V1.74984C11.9577 1.59513 11.8962 1.44675 11.7868 1.33736C11.6774 1.22796 11.5291 1.1665 11.3743 1.1665Z" fill="#123734"/>
<path fill-rule="evenodd" clip-rule="evenodd" d="M8.45703 9.91634V12.833L11.957 9.33301H9.04036C8.88565 9.33301 8.73728 9.39447 8.62789 9.50386C8.51849 9.61326 8.45703 9.76163 8.45703 9.91634Z" fill="#123734"/>
</svg>
