<svg width="20" height="18" viewBox="0 0 20 18" fill="none" xmlns="http://www.w3.org/2000/svg">
<path d="M9.72971 0C4.34365 0 0 3.47488 0 7.69344C0 10.4317 1.80696 12.8294 4.51739 14.1985L3.60001 17.6248C3.58272 17.6761 3.58007 17.7313 3.59234 17.7839C3.60462 17.8367 3.63133 17.8852 3.66952 17.9237C3.7252 17.9726 3.79683 17.9998 3.87107 18C3.93261 17.9952 3.99101 17.9707 4.03785 17.9306L7.98537 15.2689C8.56807 15.3492 9.15545 15.3909 9.74373 15.3939C15.1229 15.3939 19.4734 11.919 19.4734 7.69344C19.4734 3.46794 15.1089 0 9.72971 0Z" fill="#392020"/>
</svg>
