<svg viewBox="0 0 24 24" fill="currentColor" xmlns="http://www.w3.org/2000/svg">
<path d="M18.0029 16.7002C18.7209 16.7002 19.3027 17.282 19.3027 18C19.3027 18.718 18.7209 19.2998 18.0029 19.2998H6.00293C5.28496 19.2998 4.70312 18.718 4.70312 18C4.70312 17.282 5.28496 16.7002 6.00293 16.7002H18.0029ZM18.0029 10.7002C18.7209 10.7002 19.3027 11.282 19.3027 12C19.3027 12.718 18.7209 13.2998 18.0029 13.2998H6.00293C5.28496 13.2998 4.70312 12.718 4.70312 12C4.70312 11.282 5.28496 10.7002 6.00293 10.7002H18.0029ZM18.0029 4.7002C18.7209 4.7002 19.3027 5.28203 19.3027 6C19.3027 6.71797 18.7209 7.2998 18.0029 7.2998H6.00293C5.28496 7.2998 4.70312 6.71797 4.70312 6C4.70312 5.28203 5.28496 4.7002 6.00293 4.7002H18.0029Z" fill="currentColor"/>
</svg>
