<svg width="50" height="66" viewBox="0 0 50 66" fill="none" xmlns="http://www.w3.org/2000/svg">
<g filter="url(#mainsymbol_inner)">
<path d="M50 22.8614L49.9999 15.2308L33.7688 24.3174L39.0541 17.106V7.29808L30.2028 18.8593C29.6998 19.553 28.6187 19.1033 28.7388 18.2495L31.2613 0L24.5046 4.5052L21.7268 24.5842C21.3664 27.1913 18.934 28.9674 16.3815 28.4719L1.67431 23.1635V30.4615L14.3094 34.3493L0 40.9327L0.000144025 48.6348L14.1115 41.6826L8.19832 48.2308V58.3846L17.0421 47.1407C17.5451 46.447 18.6262 46.8967 18.5061 47.7505L15.9836 66L22.8679 60.5343L25.5106 41.4158C25.8709 38.8087 28.3034 37.0326 30.8559 37.5281L44.437 40.1351V33.6346L32.928 31.6507L49.985 22.8614H50Z" fill="#25D5C9"/>
<path d="M50 22.8614L49.9999 15.2308L33.7688 24.3174L39.0541 17.106V7.29808L30.2028 18.8593C29.6998 19.553 28.6187 19.1033 28.7388 18.2495L31.2613 0L24.5046 4.5052L21.7268 24.5842C21.3664 27.1913 18.934 28.9674 16.3815 28.4719L1.67431 23.1635V30.4615L14.3094 34.3493L0 40.9327L0.000144025 48.6348L14.1115 41.6826L8.19832 48.2308V58.3846L17.0421 47.1407C17.5451 46.447 18.6262 46.8967 18.5061 47.7505L15.9836 66L22.8679 60.5343L25.5106 41.4158C25.8709 38.8087 28.3034 37.0326 30.8559 37.5281L44.437 40.1351V33.6346L32.928 31.6507L49.985 22.8614H50Z" fill="white" fill-opacity="0.6"/>
</g>
<g transform="translate(-0.999 1.499)" filter="url(#mainsymbol_glow)">
<path d="M49.485 21V16L32 25.5L38.9999 15.5V8.99997L30.9999 19C30.4969 19.6937 28.1193 19.1033 28.2394 18.2495L30.5 2L27 4.49999L24.5 23.5C24 27 19.9345 28.7655 17.382 28.27L4.00057 23.5V28L18 32.8492L2 40.5V45.5L18 38L10.5 47.5L10.5 53.5L18 44.5C18.503 43.8063 20.6201 44.7869 20.5 45.6406L18.5 61.5L23 58L25.5 39.5C25.8604 36.8929 29.3039 34.5045 31.8564 35L43.9999 37.5V32.8492L31.8564 30.5L49.485 21Z" fill="url(#mainsymbol_grad)"/>
</g>
<defs>
<filter id="mainsymbol_inner" x="-0.5" y="-0.5" width="51" height="67" filterUnits="userSpaceOnUse" color-interpolation-filters="sRGB">
<feFlood flood-opacity="0" result="BackgroundImageFix"/>
<feBlend mode="normal" in="SourceGraphic" in2="BackgroundImageFix" result="shape"/>
<feColorMatrix in="SourceAlpha" type="matrix" values="0 0 0 0 0 0 0 0 0 0 0 0 0 0 0 0 0 0 127 0" result="hardAlpha"/>
<feOffset dx="0.5"/>
<feGaussianBlur stdDeviation="0.25"/>
<feComposite in2="hardAlpha" operator="arithmetic" k2="-1" k3="1"/>
<feColorMatrix type="matrix" values="0 0 0 0 0.14902 0 0 0 0 0.835294 0 0 0 0 0.788235 0 0 0 0.5 0"/>
<feBlend mode="normal" in2="shape" result="effect1_innerShadow"/>
<feColorMatrix in="SourceAlpha" type="matrix" values="0 0 0 0 0 0 0 0 0 0 0 0 0 0 0 0 0 0 127 0" result="hardAlpha"/>
<feOffset dy="0.5"/>
<feGaussianBlur stdDeviation="0.25"/>
<feComposite in2="hardAlpha" operator="arithmetic" k2="-1" k3="1"/>
<feColorMatrix type="matrix" values="0 0 0 0 0.14902 0 0 0 0 0.835294 0 0 0 0 0.788235 0 0 0 0.4 0"/>
<feBlend mode="normal" in2="effect1_innerShadow" result="effect2_innerShadow"/>
<feColorMatrix in="SourceAlpha" type="matrix" values="0 0 0 0 0 0 0 0 0 0 0 0 0 0 0 0 0 0 127 0" result="hardAlpha"/>
<feOffset dx="-0.5"/>
<feGaussianBlur stdDeviation="0.25"/>
<feComposite in2="hardAlpha" operator="arithmetic" k2="-1" k3="1"/>
<feColorMatrix type="matrix" values="0 0 0 0 0.14902 0 0 0 0 0.835294 0 0 0 0 0.788235 0 0 0 0.4 0"/>
<feBlend mode="normal" in2="effect2_innerShadow" result="effect3_innerShadow"/>
<feColorMatrix in="SourceAlpha" type="matrix" values="0 0 0 0 0 0 0 0 0 0 0 0 0 0 0 0 0 0 127 0" result="hardAlpha"/>
<feOffset dy="-0.5"/>
<feGaussianBlur stdDeviation="0.25"/>
<feComposite in2="hardAlpha" operator="arithmetic" k2="-1" k3="1"/>
<feColorMatrix type="matrix" values="0 0 0 0 0.14902 0 0 0 0 0.835294 0 0 0 0 0.788235 0 0 0 1 0"/>
<feBlend mode="normal" in2="effect3_innerShadow" result="effect4_innerShadow"/>
</filter>
<filter id="mainsymbol_glow" x="-4" y="-4" width="59.485" height="71.5" filterUnits="userSpaceOnUse" color-interpolation-filters="sRGB">
<feFlood flood-opacity="0" result="BackgroundImageFix"/>
<feBlend mode="normal" in="SourceGraphic" in2="BackgroundImageFix" result="shape"/>
<feGaussianBlur stdDeviation="1" result="effect1_foregroundBlur"/>
</filter>
<linearGradient id="mainsymbol_grad" x1="31.5" y1="14" x2="18.5" y2="55.5" gradientUnits="userSpaceOnUse">
<stop stop-color="#25D5C9"/>
<stop offset="1" stop-color="#4AF2E7"/>
</linearGradient>
</defs>
</svg>
