<svg width="12" height="12" viewBox="0 0 12 12" fill="none" xmlns="http://www.w3.org/2000/svg">
<g clip-path="url(#clip0_2418_3239)">
<path fill-rule="evenodd" clip-rule="evenodd" d="M6.1694 2.72713L1.6384 7.25813L1.0204 9.56313L0.613896 11.0816C0.602605 11.1241 0.602661 11.1687 0.614059 11.2111C0.625457 11.2535 0.647796 11.2921 0.678839 11.3232C0.709881 11.3542 0.748536 11.3766 0.790931 11.388C0.833326 11.3994 0.877972 11.3994 0.920396 11.3881L2.4379 10.9811L4.7434 10.3631H4.7439L9.2749 5.83213L6.1699 2.72713H6.1694ZM11.1484 3.25213L8.7504 0.853632C8.704 0.807159 8.6489 0.77029 8.58824 0.745135C8.52759 0.719979 8.46256 0.707031 8.3969 0.707031C8.33123 0.707031 8.26621 0.719979 8.20555 0.745135C8.14489 0.77029 8.08979 0.807159 8.0434 0.853632L6.8059 2.09063L9.9114 5.19613L11.1484 3.95863C11.1949 3.91224 11.2317 3.85714 11.2569 3.79648C11.2821 3.73582 11.295 3.6708 11.295 3.60513C11.295 3.53947 11.2821 3.47444 11.2569 3.41379C11.2317 3.35313 11.1949 3.29803 11.1484 3.25163" fill="#595C5C"/>
</g>
<defs>
<clipPath id="clip0_2418_3239">
<rect width="12" height="12" fill="white"/>
</clipPath>
</defs>
</svg>
