<svg viewBox="0 0 24 24" fill="none" xmlns="http://www.w3.org/2000/svg">
<g clip-path="url(#clip0_484_10280)">
<g filter="url(#filter0_d_484_10280)">
<path fill-rule="evenodd" clip-rule="evenodd" d="M20.9634 12.362C20.6499 12.3074 20.3276 12.3796 20.0673 12.5626C19.807 12.7456 19.6301 13.0246 19.5754 13.338C19.264 15.1268 18.3305 16.748 16.9396 17.915C15.5487 19.0821 13.79 19.72 11.9744 19.716C7.72037 19.716 4.25938 16.255 4.25938 12C4.25938 7.74602 7.72037 4.28502 11.9744 4.28502C13.9084 4.28502 15.7274 4.99902 17.1494 6.28902L16.1574 7.28102C16.0276 7.4103 15.9362 7.57306 15.8934 7.75117C15.8507 7.92929 15.8581 8.11579 15.915 8.28991C15.9719 8.46404 16.076 8.61896 16.2157 8.73744C16.3555 8.85592 16.5253 8.93332 16.7064 8.96102L20.9184 9.61102C21.0722 9.63474 21.2295 9.62183 21.3775 9.57335C21.5254 9.52487 21.6599 9.44218 21.7699 9.33199C21.8798 9.2218 21.9623 9.08723 22.0105 8.9392C22.0587 8.79117 22.0714 8.63385 22.0474 8.48002L21.3984 4.26902C21.3705 4.08806 21.293 3.91837 21.1746 3.77876C21.0561 3.63915 20.9013 3.5351 20.7273 3.47813C20.5533 3.42116 20.3669 3.41352 20.1888 3.45604C20.0107 3.49856 19.8479 3.58959 19.7184 3.71902L18.8464 4.59202C16.9827 2.84963 14.5257 1.8818 11.9744 1.88502C6.39737 1.88502 1.85938 6.42302 1.85938 12C1.85938 17.578 6.39737 22.115 11.9744 22.115C16.9024 22.115 21.0924 18.597 21.9394 13.75C21.994 13.4365 21.9218 13.1142 21.7388 12.8539C21.5557 12.5936 21.2768 12.4167 20.9634 12.362Z" fill="currentColor"/>
</g>
</g>
<defs>
<filter id="filter0_d_484_10280" x="-14.1406" y="-14.115" width="52.2031" height="52.23" filterUnits="userSpaceOnUse" color-interpolation-filters="sRGB">
<feFlood flood-opacity="0" result="BackgroundImageFix"/>
<feColorMatrix in="SourceAlpha" type="matrix" values="0 0 0 0 0 0 0 0 0 0 0 0 0 0 0 0 0 0 127 0" result="hardAlpha"/>
<feOffset/>
<feGaussianBlur stdDeviation="8"/>
<feComposite in2="hardAlpha" operator="out"/>
<feColorMatrix type="matrix" values="0 0 0 0 0.160784 0 0 0 0 0.533333 0 0 0 0 0.533333 0 0 0 0.24 0"/>
<feBlend mode="normal" in2="BackgroundImageFix" result="effect1_dropShadow_484_10280"/>
<feBlend mode="normal" in="SourceGraphic" in2="effect1_dropShadow_484_10280" result="shape"/>
</filter>
<clipPath id="clip0_484_10280">
<rect width="24" height="24" fill="white"/>
</clipPath>
</defs>
</svg>
