<svg  viewBox="0 0 36 36" fill="currentColor" xmlns="http://www.w3.org/2000/svg">
<path d="M18 0C31.6492 0 36 4.35079 36 18C36 31.6492 31.6492 36 18 36C4.35079 36 0 31.6492 0 18C0 4.35079 4.35079 0 18 0Z" fill="currentColor"/>
<path d="M16.499 9.7002C20.2546 9.7002 23.2988 12.7445 23.2988 16.5C23.2988 17.9083 22.8708 19.2165 22.1377 20.3018L26.917 25.0811C27.4246 25.5887 27.4246 26.4113 26.917 26.9189C26.4093 27.4266 25.5868 27.4265 25.0791 26.9189L20.2988 22.1387C19.2139 22.8712 17.9067 23.2998 16.499 23.2998C12.7435 23.2998 9.69922 20.2555 9.69922 16.5C9.69922 12.7445 12.7435 9.7002 16.499 9.7002ZM16.499 12.2998C14.1794 12.2998 12.2988 14.1804 12.2988 16.5C12.2988 18.8196 14.1794 20.7002 16.499 20.7002C18.8186 20.7002 20.6992 18.8196 20.6992 16.5C20.6992 14.1804 18.8186 12.2998 16.499 12.2998Z" fill="white"/>
</svg>
