<svg viewBox="0 0 24 24" fill="currentColor" xmlns="http://www.w3.org/2000/svg">
<path d="M10.5029 3.7002C14.2585 3.7002 17.3027 6.74446 17.3027 10.5C17.3027 11.9083 16.8747 13.2165 16.1416 14.3018L20.9209 19.0811C21.4285 19.5887 21.4285 20.4113 20.9209 20.9189C20.4132 21.4266 19.5907 21.4265 19.083 20.9189L14.3027 16.1387C13.2178 16.8712 11.9106 17.2998 10.5029 17.2998C6.74739 17.2998 3.70312 14.2555 3.70312 10.5C3.70312 6.74446 6.74739 3.7002 10.5029 3.7002ZM10.5029 6.2998C8.18333 6.2998 6.30273 8.1804 6.30273 10.5C6.30273 12.8196 8.18333 14.7002 10.5029 14.7002C12.8225 14.7002 14.7031 12.8196 14.7031 10.5C14.7031 8.1804 12.8225 6.2998 10.5029 6.2998Z" fill="currentColor"/>
</svg>
