<svg viewBox="0 0 20 21" fill="none" xmlns="http://www.w3.org/2000/svg">
<path fill-rule="evenodd" clip-rule="evenodd" d="M14.686 4.8945C14.6861 5.53732 14.5595 6.17386 14.3136 6.76777C14.0676 7.36169 13.7071 7.90134 13.2526 8.35593C12.7981 8.81052 12.2586 9.17114 11.6647 9.4172C11.0708 9.66326 10.4343 9.78993 9.7915 9.79C8.49327 9.79013 7.24815 9.27454 6.33007 8.35664C5.41198 7.43874 4.89613 6.19374 4.896 4.8955C4.89593 4.25268 5.02248 3.61614 5.26842 3.02223C5.51435 2.42831 5.87486 1.88866 6.32936 1.43407C7.24725 0.515981 8.49226 0.000132634 9.7905 2.55733e-08C11.0887 -0.000132583 12.3338 0.515462 13.2519 1.43336C14.17 2.35126 14.6859 3.59627 14.686 4.8945ZM9.791 11.2875C2.742 11.2875 0 15.7735 0 17.8605C0 19.9465 5.837 20.5025 9.791 20.5025C13.745 20.5025 19.582 19.9465 19.582 17.8605C19.582 15.7735 16.84 11.2875 9.791 11.2875Z" fill="currentColor"/>
</svg>
