<svg width="24" height="24" viewBox="0 0 24 24" fill="none" xmlns="http://www.w3.org/2000/svg">
<path fill-rule="evenodd" clip-rule="evenodd" d="M12.0127 14.2C12.7306 14.2 13.3123 14.7819 13.3125 15.4998C13.3125 16.2177 12.7307 16.7996 12.0127 16.7996H12.0029C11.285 16.7996 10.7031 16.2177 10.7031 15.4998C10.7033 14.7819 11.2851 14.2 12.0029 14.2H12.0127ZM12.0029 7.19995C12.7208 7.19995 13.3026 7.78192 13.3027 8.49976V11.4998C13.3027 12.2177 12.7209 12.7996 12.0029 12.7996C11.285 12.7996 10.7031 12.2177 10.7031 11.4998V8.49976C10.7033 7.78192 11.2851 7.19995 12.0029 7.19995Z" fill="#222121"/>
<path d="M8.53298 2.9999C10.0726 0.333366 13.9211 0.333368 15.4607 2.9999L22.3894 14.9999C23.9289 17.6665 22.0037 20.9999 18.9246 20.9999V18.4003C20.0023 18.4003 20.6763 17.233 20.1375 16.2997L13.2097 4.2997C12.6709 3.36637 11.3228 3.36637 10.784 4.2997L3.85622 16.2997C3.31736 17.233 3.99139 18.4003 5.06911 18.4003V20.9999L4.78298 20.9901C1.87241 20.7918 0.112975 17.5831 1.60427 14.9999L8.53298 2.9999ZM18.9246 18.4003V20.9999H5.06911V18.4003H18.9246Z" fill="#222121"/>
</svg>
